:SAMPLES-PER-SECOND 30
:FULLY-SPECIFIED
:DEGREES
187
root  -3.34286 40.6772 -2.57236 1.69135 -52.596 1.62174
RightUpLeg  2.34259 -2.00683 3.05487
RightLeg  -6.33142 -53.7018 7.17962
RightFoot  -3.04317 -0.0569681 0.457597
RightToes  -3.13006e-008 1.75238e-005 3.56266e-009
Spine  0.324095 5.52774 0.609605
Spine1  18.4708 7.79271 -4.5526
HEad  -21.578 -46.7008 32.411
LeftShoulder1  4.35275 -8.6012 -29.9471
LeftArm  1.28581 16.102 -46.577
LeftForeArm  163.357 -58.3263 -163.297
LeftHand  -1.1618 -5.29047 12.8893
RightShoulder  3.89394 8.465 26.504
RightArm  -67.273 25.8235 9.05802
RightForeArm  36.6244 73.2777 36.5669
RightHand  -2.00678 11.5504 -14.0631
LeftUpLeg  -8.39997 -1.60399 3.32135
LeftLeg  0.402346 -19.9811 1.50027
LeftFoot  3.25102 0.88617 -7.07091
LeftToes  4.78685e-008 1.46778e-008 1.34523e-009
188
root  -3.27069 40.6257 -2.84666 1.73357 -51.3061 1.28716
RightUpLeg  1.99411 -1.89909 3.57704
RightLeg  -5.70487 -55.1788 6.85533
RightFoot  -3.33681 -0.0379084 0.181084
RightToes  -3.13006e-008 1.75238e-005 3.56266e-009
Spine  0.345874 5.86261 -0.290593
Spine1  20.9433 7.73666 -2.83457
HEad  -21.2621 -46.5423 33.3356
LeftShoulder1  4.34825 -8.50694 -30.1945
LeftArm  0.638311 16.1022 -47.6716
LeftForeArm  163.092 -58.557 -163.131
LeftHand  -1.05362 -4.8376 12.2241
RightShoulder  4.14577 8.76737 27.7983
RightArm  -64.3254 24.9732 9.59672
RightForeArm  24.0288 68.1172 26.8258
RightHand  -1.78714 10.5663 -13.3175
LeftUpLeg  -9.00892 -1.6838 3.55517
LeftLeg  0.953045 -21.2483 1.56064
LeftFoot  3.28786 0.924917 -7.35506
LeftToes  4.78685e-008 1.46778e-008 1.34523e-009
189
root  -3.19722 40.5838 -3.1011 2.01765 -50.3416 0.880476
RightUpLeg  1.59445 -1.9425 3.9709
RightLeg  -5.49582 -56.0975 7.10113
RightFoot  -3.65058 -0.0107508 -0.222709
RightToes  -3.13006e-008 1.75238e-005 3.56266e-009
Spine  1.44199 6.0983 -0.05776
Spine1  21.3542 7.98686 -2.79855
HEad  -20.3403 -46.594 33.1592
LeftShoulder1  4.26377 -8.37121 -29.893
LeftArm  0.870542 16.2082 -48.244
LeftForeArm  163.742 -58.8936 -162.977
LeftHand  -1.05141 -4.72581 12.3218
RightShoulder  4.40595 9.12647 28.9296
RightArm  -62.2087 23.5222 10.2553
RightForeArm  21.3178 64.756 22.4053
RightHand  -1.69624 10.2455 -12.9139
LeftUpLeg  -9.69407 -1.73806 3.85889
LeftLeg  1.34637 -22.1928 1.664
LeftFoot  3.3914 0.992262 -7.82687
LeftToes  4.78685e-008 1.46778e-008 1.34523e-009
190
root  -3.14996 40.5456 -3.31012 2.35796 -49.3896 0.7247
RightUpLeg  0.895201 -1.90441 4.25184
RightLeg  -4.93175 -57.0795 6.85716
RightFoot  -3.89368 -0.00215383 -0.339772
RightToes  -3.13006e-008 1.75238e-005 3.56266e-009
Spine  2.14073 6.35391 -0.218207
Spine1  21.738 8.04216 -2.17838
HEad  -20.0205 -46.3121 32.3473
LeftShoulder1  4.24103 -8.35433 -29.7498
LeftArm  1.47089 15.879 -48.1436
LeftForeArm  163.387 -58.983 -162.888
LeftHand  -1.12413 -4.91485 12.9266
RightShoulder  4.59755 9.51476 29.3703
RightArm  -61.6161 21.8674 11.4663
RightForeArm  22.4272 64.9744 22.6113
RightHand  -1.7417 10.6008 -12.967
LeftUpLeg  -10.5056 -1.99294 3.97465
LeftLeg  1.58927 -22.8929 1.80371
LeftFoot  3.59362 1.03716 -8.07106
LeftToes  4.78685e-008 1.46778e-008 1.34523e-009
191
root  -3.11608 40.514 -3.47139 2.78181 -48.7692 0.557245
RightUpLeg  0.200217 -1.71417 4.56456
RightLeg  -4.43062 -57.8639 6.4884
RightFoot  -4.05956 -0.00129697 -0.338021
RightToes  -3.13006e-008 1.75238e-005 3.56266e-009
Spine  1.95452 6.52359 -0.608084
Spine1  22.813 7.83361 -1.03123
HEad  -20.0291 -45.8966 31.2993
LeftShoulder1  4.26038 -8.32891 -29.994
LeftArm  1.46382 15.0152 -47.8404
LeftForeArm  162.936 -59.013 -162.829
LeftHand  -1.10947 -5.28336 12.3383
RightShoulder  4.70572 9.7976 29.4298
RightArm  -61.5359 21.7364 12.3804
RightForeArm  22.4699 66.0965 24.0375
RightHand  -1.8047 10.2264 -13.7204
LeftUpLeg  -11.1486 -2.22579 4.0829
LeftLeg  1.58471 -23.2061 2.02858
LeftFoot  3.80385 1.05136 -8.07399
LeftToes  4.78685e-008 1.46778e-008 1.34523e-009
192
root  -3.10981 40.4923 -3.60877 3.00883 -48.2452 0.424752
RightUpLeg  -0.180197 -1.50295 4.87544
RightLeg  -4.22975 -58.6082 6.29502
RightFoot  -4.10726 0.000564562 -0.353213
RightToes  -3.13006e-008 1.75238e-005 3.56266e-009
Spine  2.7178 6.37785 -0.22689
Spine1  22.2436 7.86765 -1.64883
HEad  -19.3571 -45.6769 30.6422
LeftShoulder1  4.20509 -8.34769 -29.4612
LeftArm  1.71145 14.8193 -47.6462
LeftForeArm  163.136 -59.0736 -162.807
LeftHand  -1.04681 -5.03703 11.9134
RightShoulder  4.74953 9.70358 30.0257
RightArm  -61.5193 21.8722 13.1784
RightForeArm  24.1236 66.9664 25.043
RightHand  -1.77814 10.4494 -13.3532
LeftUpLeg  -11.562 -2.18767 4.2562
LeftLeg  1.62519 -23.7322 2.02795
LeftFoot  4.00431 1.05881 -8.03127
LeftToes  4.78685e-008 1.46778e-008 1.34523e-009
193
root  -3.12393 40.4816 -3.68711 3.02135 -47.8541 0.44245
RightUpLeg  -0.307109 -1.46085 4.98242
RightLeg  -4.15229 -59.0113 6.24479
RightFoot  -4.20134 0.00411917 -0.39599
RightToes  -3.13006e-008 1.75238e-005 3.56266e-009
Spine  2.54205 6.08309 -0.304552
Spine1  22.5523 7.63889 -1.868
HEad  -18.9363 -45.0123 30.3742
LeftShoulder1  4.18827 -8.38288 -29.2097
LeftArm  1.66447 13.7785 -47.3262
LeftForeArm  163.019 -59.5571 -162.483
LeftHand  -0.950742 -4.91912 10.9735
RightShoulder  4.71579 9.66452 29.8741
RightArm  -60.6452 22.2736 14.654
RightForeArm  24.5366 67.9423 26.4832
RightHand  -1.89625 9.87069 -14.7077
LeftUpLeg  -11.7272 -2.17936 4.29489
LeftLeg  1.59662 -24.1296 2.03284
LeftFoot  4.10629 1.07481 -8.10015
LeftToes  4.78685e-008 1.46778e-008 1.34523e-009
194
root  -3.1164 40.4779 -3.71175 2.94396 -48.0466 0.363538
RightUpLeg  -0.185985 -1.46752 5.03219
RightLeg  -4.17643 -58.8108 6.30865
RightFoot  -4.19447 0.0152729 -0.558043
RightToes  -3.13006e-008 1.75238e-005 3.56266e-009
Spine  2.30172 5.79791 0.0535777
Spine1  22.7684 7.65696 -2.69026
HEad  -18.4805 -44.2572 30.0387
LeftShoulder1  4.18093 -8.45258 -28.9369
LeftArm  1.76661 12.5897 -47.1447
LeftForeArm  162.918 -60.262 -161.999
LeftHand  -1.11832 -4.86332 12.9239
RightShoulder  4.72307 9.74592 29.705
RightArm  -60.0557 22.4631 15.6946
RightForeArm  26.0533 68.2457 26.7519
RightHand  -1.91302 10.5674 -14.2134
LeftUpLeg  -11.6378 -2.20482 4.35101
LeftLeg  1.73871 -23.954 2.05606
LeftFoot  4.0251 1.06046 -8.03366
LeftToes  4.78685e-008 1.46778e-008 1.34523e-009
195
root  -3.14957 40.483 -3.68653 2.62761 -48.5866 0.46032
RightUpLeg  0.213261 -1.68065 4.8704
RightLeg  -4.29084 -58.0594 6.53119
RightFoot  -4.26112 0.023959 -0.682976
RightToes  -3.13006e-008 1.75238e-005 3.56266e-009
Spine  1.78299 5.57573 -0.221489
Spine1  22.692 7.511 -2.90963
HEad  -17.7961 -43.4015 29.4794
LeftShoulder1  4.22888 -8.60013 -28.9061
LeftArm  1.65467 11.2633 -47.2034
LeftForeArm  162.653 -61.3911 -161.169
LeftHand  -1.09188 -4.65435 12.8685
RightShoulder  4.6832 9.73965 29.4134
RightArm  -57.5728 22.2241 16.5264
RightForeArm  26.1678 68.8307 27.7531
RightHand  -1.9396 10.7818 -14.222
LeftUpLeg  -11.2687 -2.11125 4.35966
LeftLeg  1.89824 -23.5031 1.94289
LeftFoot  3.89343 1.02703 -7.84859
LeftToes  4.78685e-008 1.46778e-008 1.34523e-009
196
root  -3.22047 40.4904 -3.6338 2.26358 -49.548 0.475998
RightUpLeg  0.836845 -1.78112 4.8031
RightLeg  -4.50363 -57.0163 6.73169
RightFoot  -4.30091 0.03441 -0.836488
RightToes  -3.13006e-008 1.75238e-005 3.56266e-009
Spine  0.951478 5.4414 -0.704624
Spine1  22.6766 7.37095 -2.84139
HEad  -16.5141 -42.3444 27.7559
LeftShoulder1  4.26293 -8.71621 -28.8517
LeftArm  1.63629 9.37201 -47.5736
LeftForeArm  163.113 -62.9139 -160.038
LeftHand  -1.06247 -4.59819 12.5929
RightShoulder  4.60545 9.63265 29.1043
RightArm  -54.2878 21.8088 17.1793
RightForeArm  28.7438 69.8364 29.2344
RightHand  -1.9578 10.7581 -14.3704
LeftUpLeg  -10.7212 -1.85671 4.49973
LeftLeg  2.25988 -22.8446 1.69925
LeftFoot  3.51684 0.989135 -7.74267
LeftToes  4.78685e-008 1.46778e-008 1.34523e-009
197
root  -3.31098 40.5049 -3.53911 1.66683 -50.6857 0.681299
RightUpLeg  1.60414 -1.85525 4.63722
RightLeg  -4.59941 -55.8574 6.66258
RightFoot  -4.32294 0.0293255 -0.749731
RightToes  -3.13006e-008 1.75238e-005 3.56266e-009
Spine  -0.142067 5.15133 -1.68896
Spine1  22.4676 6.94394 -2.41884
HEad  -14.9209 -40.5811 25.3961
LeftShoulder1  4.2138 -8.57777 -28.8436
LeftArm  2.27374 6.7593 -48.0862
LeftForeArm  163.673 -64.7503 -158.512
LeftHand  -1.18685 -4.39117 14.3191
RightShoulder  4.66188 9.7898 29.1132
RightArm  -50.4492 21.1599 17.4842
RightForeArm  33.7561 71.5868 32.212
RightHand  -1.89802 10.4388 -14.2168
LeftUpLeg  -9.88635 -1.74241 4.46653
LeftLeg  2.43808 -21.8943 1.62092
LeftFoot  3.13298 0.945269 -7.5859
LeftToes  4.78685e-008 1.46778e-008 1.34523e-009
198
root  -3.45624 40.5236 -3.41129 1.03418 -51.783 0.932163
RightUpLeg  2.5246 -1.83503 4.51666
RightLeg  -4.93546 -54.8551 6.67374
RightFoot  -4.32923 0.0205406 -0.606542
RightToes  -3.13006e-008 1.75238e-005 3.56266e-009
Spine  -1.8691 4.7887 -2.33627
Spine1  22.6577 6.65311 -2.456
HEad  -13.9499 -38.9898 23.0009
LeftShoulder1  4.14343 -8.55833 -28.3064
LeftArm  3.18608 2.83932 -49.2274
LeftForeArm  165.199 -67.0681 -156.359
LeftHand  -1.09753 -3.89542 13.9415
RightShoulder  4.70181 9.88419 29.1644
RightArm  -46.9114 20.2989 17.7348
RightForeArm  42.6565 74.0114 37.4957
RightHand  -1.95309 10.452 -14.6032
LeftUpLeg  -8.95991 -1.37071 4.48418
LeftLeg  2.6195 -21.2583 1.33981
LeftFoot  2.66288 0.881221 -7.30134
LeftToes  4.78685e-008 1.46778e-008 1.34523e-009
199
root  -3.57283 40.5456 -3.27168 0.555569 -53.1032 1.20518
RightUpLeg  3.05142 -1.84504 4.31463
RightLeg  -4.65835 -53.6487 6.21041
RightFoot  -4.34732 0.0132167 -0.487061
RightToes  -3.13006e-008 1.75238e-005 3.56266e-009
Spine  -2.97371 4.43329 -2.57951
Spine1  21.3428 6.46129 -3.00239
HEad  -12.6455 -37.1833 19.7478
LeftShoulder1  4.11085 -8.69449 -27.6326
LeftArm  3.95922 -2.09391 -50.8393
LeftForeArm  167.405 -70 -153.029
LeftHand  -1.07447 -4.06536 13.4098
RightShoulder  4.74143 9.89083 29.4505
RightArm  -43.5421 19.258 17.6542
RightForeArm  55.7293 76.8416 47.0814
RightHand  -2.10196 10.2507 -15.8634
LeftUpLeg  -8.05766 -1.19956 4.41767
LeftLeg  2.47632 -20.1742 1.36513
LeftFoot  2.30462 0.844688 -7.17118
LeftToes  4.78685e-008 1.46778e-008 1.34523e-009
200
root  -3.69902 40.5633 -3.12259 -0.00112434 -54.0354 1.58832
RightUpLeg  3.62151 -2.03671 3.96537
RightLeg  -4.51519 -52.5821 5.9997
RightFoot  -4.49881 0.00145678 -0.299646
RightToes  -3.13006e-008 1.75238e-005 3.56266e-009
Spine  -3.88977 3.68914 -3.01344
Spine1  19.9034 5.77215 -3.35963
HEad  -11.8707 -34.6096 15.9956
LeftShoulder1  4.04426 -8.54871 -27.4837
LeftArm  5.10479 -8.28449 -51.7379
LeftForeArm  168.76 -73.0438 -148.334
LeftHand  -1.20275 -4.73374 14.037
RightShoulder  4.66958 9.7481 29.285
RightArm  -40.8121 19.0394 17.3089
RightForeArm  72.6575 79.0943 61.0429
RightHand  -2.18693 10.7079 -16.0332
LeftUpLeg  -7.19692 -0.977572 4.28673
LeftLeg  2.26661 -19.5563 1.27491
LeftFoot  1.99708 0.807177 -7.00199
LeftToes  4.78685e-008 1.46778e-008 1.34523e-009
201
root  -3.80481 40.5872 -2.97741 -0.37724 -54.8241 1.91189
RightUpLeg  4.11675 -2.061 3.71575
RightLeg  -4.7588 -51.7761 5.97772
RightFoot  -4.46734 -0.0105002 -0.110096
RightToes  -3.13006e-008 1.75238e-005 3.56266e-009
Spine  -4.95817 2.99394 -3.62943
Spine1  18.3519 4.89897 -3.02546
HEad  -11.0424 -32.0085 11.7641
LeftShoulder1  4.16643 -8.76573 -27.9007
LeftArm  5.89601 -15.5247 -51.5628
LeftForeArm  165.361 -75.8531 -141.235
LeftHand  -1.16682 -5.21329 13.0334
RightShoulder  4.44614 9.62314 27.8803
RightArm  -38.7536 19.0146 16.5853
RightForeArm  92.5269 80.3543 78.8818
RightHand  -2.2014 11.1231 -15.7382
LeftUpLeg  -6.50371 -0.792622 4.16296
LeftLeg  1.96753 -18.9745 1.21427
LeftFoot  1.74961 0.791989 -6.99141
LeftToes  4.78685e-008 1.46778e-008 1.34523e-009
